<?xml version="1.0" standalone="no"?>
<!DOCTYPE svg PUBLIC "-//W3C//DTD SVG 20010904//EN"
 "http://www.w3.org/TR/2001/REC-SVG-20010904/DTD/svg10.dtd">
<svg version="1.0" xmlns="http://www.w3.org/2000/svg"
 width="360.000000pt" height="203.000000pt" viewBox="0 0 360.000000 203.000000"
 preserveAspectRatio="xMidYMid meet">

<g transform="translate(0.000000,203.000000) scale(0.100000,-0.100000)"
fill="#000000" stroke="none">
<path d="M211 1888 c-13 -79 -38 -237 -56 -353 -19 -115 -44 -274 -56 -352
-21 -128 -25 -143 -46 -152 -13 -6 -30 -11 -38 -11 -13 0 -15 -71 -15 -510 l0
-510 1800 0 1800 0 0 116 c0 113 -12 144 -26 69 -8 -44 -22 -53 -33 -23 -9 25
-5 42 9 33 5 -3 11 8 15 24 3 16 13 35 21 42 8 6 14 23 14 36 0 22 -2 24 -15
13 -20 -17 -21 9 0 36 12 16 14 75 15 351 l0 332 -34 35 c-19 19 -46 56 -60
83 -13 28 -40 70 -59 95 -71 93 -76 129 -7 51 23 -26 51 -66 62 -87 11 -22 37
-65 57 -95 l36 -55 3 37 c3 31 -6 51 -52 121 -30 47 -75 110 -100 141 -25 30
-49 67 -52 80 -3 14 -8 25 -10 25 -11 0 -64 -28 -94 -50 l-35 -25 16 25 c23
35 77 70 109 70 22 0 29 -5 33 -29 4 -17 31 -58 61 -93 31 -35 70 -85 88 -112
l33 -49 3 43 c3 41 1 45 -77 125 -45 45 -81 90 -81 100 0 11 28 -11 77 -61 75
-77 77 -78 81 -51 2 21 -3 33 -24 49 -38 30 -72 65 -91 94 -30 46 -6 35 53
-23 54 -53 59 -56 62 -35 3 17 -10 38 -42 72 -25 27 -46 56 -46 65 0 25 13 17
43 -25 16 -22 33 -40 38 -40 16 0 10 41 -11 67 -25 33 -25 46 0 38 17 -5 20
-2 20 24 0 16 -5 33 -10 36 -7 4 -7 12 0 25 5 10 10 89 10 174 l0 156 -626 0
-626 0 -30 -30 c-16 -16 -40 -30 -52 -30 -23 0 -66 33 -66 50 0 6 -12 9 -27 9
-17 -1 -21 -3 -10 -6 9 -2 17 -9 17 -15 0 -6 8 -17 17 -24 10 -7 18 -18 18
-26 1 -7 6 -12 13 -10 7 1 12 -4 12 -12 0 -18 -63 -28 -110 -18 -26 6 -36 14
-38 31 -2 14 0 21 6 17 18 -11 23 12 7 27 -8 9 -15 20 -15 26 0 8 -184 11
-614 11 l-614 0 -6 -37 c-3 -21 -22 -186 -41 -368 -19 -181 -40 -372 -46 -423
-11 -92 -8 -115 12 -95 13 13 55 5 71 -14 10 -12 9 -14 -3 -11 -7 1 -15 -2
-16 -7 -1 -6 12 -9 30 -8 18 1 26 0 20 -3 -16 -7 -17 -44 -2 -44 5 0 7 5 4 10
-3 6 -1 10 4 10 14 0 14 -13 0 -44 -8 -16 -17 -22 -27 -19 -10 4 -13 2 -8 -5
4 -7 16 -12 27 -12 29 0 23 -18 -8 -23 l-28 -4 28 -2 c15 0 27 -5 27 -10 0 -4
-10 -6 -23 -4 -17 3 -28 -2 -41 -22 -10 -16 -23 -24 -32 -21 -8 3 -14 1 -14
-4 0 -6 9 -10 20 -10 11 0 20 -7 20 -15 0 -9 -6 -12 -17 -9 -16 5 -16 5 -1 -5
19 -13 13 -51 -9 -51 -8 0 -12 4 -8 9 3 5 0 21 -6 35 -10 22 -13 23 -26 10 -8
-8 -23 -12 -33 -9 -15 5 -17 2 -13 -15 6 -24 19 -26 31 -3 8 14 11 13 25 -8 8
-13 18 -35 22 -47 6 -22 5 -23 -17 -17 l-23 7 23 -21 c23 -23 47 -20 38 4 -3
8 2 19 10 25 8 7 14 19 14 26 0 8 4 14 9 14 5 0 7 9 4 20 -3 11 -1 20 5 20 11
0 22 -33 22 -67 0 -13 5 -23 10 -23 24 0 37 -24 28 -51 -10 -29 -35 -34 -43
-8 -7 21 -34 32 -49 20 -6 -4 -28 -11 -49 -15 -22 -4 -37 -12 -35 -18 7 -19
28 -21 28 -3 0 11 5 15 16 11 8 -3 25 -1 36 5 16 9 24 7 36 -5 15 -15 15 -16
-1 -16 -9 0 -17 4 -17 9 0 5 -11 4 -25 -2 -14 -7 -23 -18 -20 -24 2 -8 -4 -13
-14 -13 -33 0 -51 -11 -51 -31 0 -10 5 -19 10 -19 17 0 11 -22 -12 -47 -12
-13 -16 -23 -10 -23 6 0 19 11 28 25 9 14 21 25 27 25 6 0 0 -11 -13 -26 -17
-17 -21 -27 -13 -32 8 -5 8 -13 -1 -31 -9 -15 -16 -20 -20 -12 -4 6 -11 11
-17 11 -16 0 -10 -26 11 -45 11 -10 20 -24 20 -32 0 -8 4 -11 10 -8 5 3 18 1
27 -4 16 -9 16 -10 -4 -11 -13 0 -23 -5 -23 -11 0 -6 8 -8 19 -4 11 3 23 0 27
-6 5 -9 -2 -11 -29 -6 -44 7 -47 1 -9 -15 l27 -12 -26 -3 c-15 -2 -31 -14 -37
-26 -9 -18 -10 -13 -7 26 3 26 7 52 10 57 3 4 -1 15 -9 23 -8 8 -12 17 -9 21
3 3 -2 8 -11 12 -9 3 -16 17 -16 29 0 13 -4 27 -10 30 -5 3 -10 10 -10 16 0 5
5 9 10 9 6 0 10 -7 10 -16 0 -9 6 -14 13 -11 6 2 12 12 12 23 0 10 6 30 14 43
9 16 10 26 2 34 -8 8 -14 2 -22 -20 -6 -17 -16 -34 -23 -36 -10 -4 -11 6 -5
45 8 47 19 77 19 50 0 -7 5 -12 11 -12 7 0 9 10 7 25 -4 17 -1 25 8 25 8 0 14
6 14 14 0 24 -48 6 -55 -21 -4 -17 -11 -23 -21 -19 -8 3 -23 -4 -34 -17 -10
-12 -28 -33 -39 -46 -16 -18 -18 -27 -10 -38 13 -15 33 -18 24 -2 -4 6 2 13
13 16 21 5 39 33 22 33 -15 0 -12 17 3 23 13 5 14 -10 5 -68 0 -5 2 -20 6 -32
5 -14 3 -23 -3 -23 -6 0 -11 -13 -11 -30 0 -24 4 -30 23 -30 16 0 18 -3 8 -9
-11 -7 -10 -10 4 -18 22 -13 18 -24 -14 -44 -26 -16 -51 -15 -51 2 0 4 7 6 15
3 8 -4 15 -1 15 5 0 6 8 11 18 11 11 0 6 7 -16 21 -18 12 -36 19 -39 15 -3 -3
5 -9 17 -14 l24 -9 -23 -6 c-30 -7 -41 21 -16 39 18 14 18 15 -2 42 -29 40
-42 81 -43 146 -1 23 19 37 43 30 9 -3 17 -1 17 5 0 5 -10 11 -22 13 -16 2
-22 9 -20 20 2 10 -2 18 -8 18 -5 0 -10 5 -10 11 0 6 7 9 15 5 22 -8 18 2 -12
30 -27 25 -27 25 -5 31 17 4 20 9 12 18 -15 18 41 30 69 15 15 -8 21 -8 21 0
0 7 6 5 15 -4 17 -16 20 -36 6 -36 -5 0 -12 6 -15 13 -3 6 -4 0 -2 -15 1 -15
0 -25 -5 -23 -4 3 -10 1 -13 -4 -3 -5 1 -12 10 -15 25 -10 31 -7 37 15 4 16
11 19 29 14 22 -6 22 -6 4 9 -11 9 -16 16 -10 16 5 0 2 5 -6 10 -13 9 -13 11
0 21 12 8 11 9 -7 4 -16 -4 -23 -1 -28 15 -7 21 -20 26 -30 10 -7 -11 -65 -9
-65 3 0 4 7 7 15 7 12 0 14 4 5 19 -8 16 -6 23 9 33 10 7 21 23 25 36 5 15 16
22 34 23 24 2 24 2 5 6 -29 5 -29 23 -2 52 12 12 19 25 16 28 -9 8 27 43 45
43 9 0 20 5 23 10 15 24 -85 0 -117 -28 -10 -8 -15 -19 -12 -23 3 -5 0 -9 -5
-9 -6 0 -10 -3 -9 -7 3 -12 -45 -103 -54 -103 -4 0 -8 12 -8 26 0 14 4 23 8
20 4 -2 8 4 8 14 0 10 -5 16 -10 13 -5 -4 -7 0 -4 9 4 9 0 15 -10 15 -24 0
-40 -15 -47 -45 -3 -15 -17 -35 -31 -46 l-26 -18 16 28 c9 16 20 36 26 44 8
14 25 130 105 715 19 138 37 269 40 293 l6 42 -194 0 -194 0 -22 -142z m952
-217 c-15 -22 -29 -38 -31 -36 -5 5 42 75 51 75 5 0 -4 -18 -20 -39z m1527 10
c0 -5 -11 -8 -25 -7 -33 1 -33 16 0 16 14 0 25 -4 25 -9z m-1320 -36 c12 -13
28 -22 34 -18 6 3 8 3 4 -2 -4 -4 -2 -15 4 -24 12 -15 11 -15 -7 0 -70 54 -85
69 -73 69 8 0 25 -11 38 -25z m1475 -5 c3 -5 -1 -10 -10 -10 -9 0 -13 5 -10
10 3 6 8 10 10 10 2 0 7 -4 10 -10z m-218 -32 c-3 -8 -6 -5 -6 6 -1 11 2 17 5
13 3 -3 4 -12 1 -19z m303 13 c0 -12 -20 -25 -27 -18 -7 7 6 27 18 27 5 0 9
-4 9 -9z m55 -1 c3 -5 -1 -10 -10 -10 -9 0 -13 5 -10 10 3 6 8 10 10 10 2 0 7
-4 10 -10z m-165 -31 c0 -5 -4 -9 -10 -9 -5 0 -10 7 -10 16 0 8 5 12 10 9 6
-3 10 -10 10 -16z m192 -1 c-7 -7 -12 -8 -12 -2 0 14 12 26 19 19 2 -3 -1 -11
-7 -17z m-30 -30 c-7 -7 -12 -8 -12 -2 0 14 12 26 19 19 2 -3 -1 -11 -7 -17z
m-72 -8 c0 -5 -6 -10 -14 -10 -8 0 -18 5 -21 10 -3 6 3 10 14 10 12 0 21 -4
21 -10z m-1737 -24 c4 -10 0 -12 -15 -8 -15 4 -17 7 -6 13 17 11 15 11 21 -5z
m167 -29 c0 -5 -4 -5 -10 -2 -5 3 -10 14 -10 23 0 15 2 15 10 2 5 -8 10 -19
10 -23z m-200 -19 c0 -6 -6 -5 -15 2 -8 7 -15 14 -15 16 0 2 7 1 15 -2 8 -4
15 -11 15 -16z m1547 -10 c-3 -8 -6 -5 -6 6 -1 11 2 17 5 13 3 -3 4 -12 1 -19z
m638 10 c-11 -6 -38 -27 -59 -47 l-39 -36 22 32 c25 37 59 63 81 63 11 -1 9
-4 -5 -12z m-2225 -18 c0 -5 -2 -10 -4 -10 -3 0 -8 5 -11 10 -3 6 -1 10 4 10
6 0 11 -4 11 -10z m148 -37 c2 -11 -4 -25 -12 -32 -12 -10 -13 -18 -5 -35 10
-19 9 -19 -12 3 l-23 25 -8 -32 c-10 -37 -14 -39 -21 -12 -3 11 -1 18 4 14 15
-9 10 16 -6 32 -8 9 -15 23 -15 32 1 15 2 15 11 0 5 -10 20 -18 33 -18 26 0
53 25 38 34 -6 3 -12 -1 -16 -9 -7 -18 -39 -20 -33 -2 2 6 9 12 15 12 5 0 14
3 18 8 12 12 29 2 32 -20z m1439 5 c-3 -8 -6 -5 -6 6 -1 11 2 17 5 13 3 -3 4
-12 1 -19z m118 -18 c3 -5 2 -10 -4 -10 -5 0 -13 5 -16 10 -3 6 -2 10 4 10 5
0 13 -4 16 -10z m-1540 -20 c3 -5 1 -10 -4 -10 -6 0 -11 5 -11 10 0 6 2 10 4
10 3 0 8 -4 11 -10z m2078 -42 c-7 -55 -22 -84 -24 -48 -3 40 1 62 12 77 17
19 18 17 12 -29z m-2202 9 c-10 -9 -11 -8 -5 6 3 10 9 15 12 12 3 -3 0 -11 -7
-18z m-110 -23 c-9 -28 -9 -29 -10 -3 -1 14 2 29 6 32 11 12 13 2 4 -29z
m1839 26 c0 -5 -4 -10 -10 -10 -5 0 -10 5 -10 10 0 6 5 10 10 10 6 0 10 -4 10
-10z m432 -78 c-2 -49 1 -106 7 -128 9 -35 9 -37 -4 -19 -35 46 -45 142 -21
200 8 19 16 35 18 35 2 0 1 -40 0 -88z m-372 56 c0 -19 -40 -81 -47 -74 -3 3
0 13 8 22 8 9 14 22 15 28 3 32 5 36 14 36 6 0 10 -6 10 -12z m307 -90 c0 -94
-1 -100 -13 -73 -7 17 -13 43 -14 58 0 25 19 117 25 117 1 0 2 -46 2 -102z
m-2149 55 c-2 -11 -13 -19 -28 -20 -15 -1 -18 0 -7 3 9 3 17 12 17 20 0 8 5
14 11 14 6 0 9 -8 7 -17z m1316 -2 c3 -4 -3 -16 -14 -26 -19 -17 -19 -17 -7 9
14 29 14 29 21 17z m-1289 -36 c-16 -13 -36 -22 -42 -20 -7 2 -13 0 -13 -5 0
-15 -17 -12 -34 6 -21 20 -11 37 13 22 14 -9 23 -7 42 5 13 10 33 17 44 17 17
0 16 -3 -10 -25z m2056 -35 l-9 -45 -1 37 c-1 20 2 44 6 54 11 29 14 2 4 -46z
m-1931 -1 c0 -5 -9 -9 -19 -9 -11 0 -23 -5 -26 -10 -4 -6 -11 -8 -16 -5 -5 4
-9 1 -9 -4 0 -6 -4 -11 -10 -11 -23 0 -8 20 24 31 19 7 33 16 30 21 -3 4 2 5
10 2 9 -3 16 -10 16 -15z m2167 4 c25 -33 106 -198 89 -184 -32 27 -127 201
-110 201 4 0 13 -8 21 -17z m-22 -93 c14 -27 21 -50 15 -50 -10 0 -33 39 -44
78 -12 38 3 24 29 -28z m-2420 -30 c-3 -5 -12 -7 -20 -4 -8 4 -18 -1 -21 -10
-8 -20 -44 -21 -44 -2 0 16 19 23 63 25 16 0 26 -3 22 -9z m123 -4 c-7 -7 -19
-11 -25 -9 -7 3 -13 0 -13 -7 0 -10 -3 -10 -15 0 -21 18 -9 30 31 30 29 0 33
-2 22 -14z m-173 -46 c3 -5 1 -10 -4 -10 -6 0 -11 5 -11 10 0 6 2 10 4 10 3 0
8 -4 11 -10z m57 -15 c-2 -14 -9 -25 -14 -25 -20 0 -1 -36 25 -47 25 -11 26
-14 15 -35 -7 -12 -19 -29 -27 -37 -8 -9 -11 -27 -8 -45 4 -27 2 -31 -18 -32
-16 -1 -22 3 -18 12 3 8 1 14 -5 14 -6 0 -12 -4 -14 -9 -1 -5 -15 -7 -30 -4
l-26 5 21 24 c24 27 37 31 37 9 0 -8 7 -15 15 -15 8 0 15 -5 15 -12 0 -6 3 -8
6 -5 4 4 2 13 -4 20 -9 10 -7 19 5 37 9 13 11 20 5 16 -7 -4 -12 -1 -12 8 0 9
7 16 15 16 8 0 15 4 15 10 0 5 -7 7 -15 4 -13 -6 -18 5 -14 32 0 4 -5 11 -13
15 -10 7 -10 9 0 9 6 0 12 5 12 12 0 9 28 48 35 48 1 0 0 -11 -3 -25z m1698
-19 c0 -40 -8 -66 -21 -66 -5 0 -9 9 -9 20 0 11 4 20 10 20 5 0 7 13 4 30 -4
19 -2 30 5 30 6 0 11 -15 11 -34z m-60 14 c0 -5 -4 -10 -10 -10 -5 0 -10 -7
-10 -15 0 -8 5 -15 11 -15 5 0 7 -4 4 -10 -3 -5 -10 -10 -16 -10 -10 0 -13 53
-2 63 10 10 23 8 23 -3z m-1601 -39 c-8 -2 -7 -6 2 -13 11 -8 11 -9 -1 -5 -8
2 -16 17 -17 33 -2 28 -1 28 13 9 10 -14 11 -21 3 -24z m-475 -125 c-4 -18
-11 -25 -20 -22 -17 6 -18 -6 -3 -21 14 -14 -3 -24 -21 -13 -11 7 -8 16 14 50
30 46 41 47 30 6z m-69 14 c-3 -5 -10 -10 -16 -10 -5 0 -9 5 -9 10 0 6 7 10
16 10 8 0 12 -4 9 -10z m666 -33 c-10 -9 -11 -8 -5 6 3 10 9 15 12 12 3 -3 0
-11 -7 -18z m1559 14 c0 -11 -31 -24 -39 -16 -3 3 1 10 9 15 19 12 30 12 30 1z
m-55 -21 c4 -6 -5 -10 -20 -10 -15 0 -24 4 -20 10 3 6 12 10 20 10 8 0 17 -4
20 -10z m-1725 -51 c0 -5 -4 -9 -10 -9 -5 0 -10 7 -10 16 0 8 5 12 10 9 6 -3
10 -10 10 -16z m-423 -23 c-15 -31 -20 -27 -11 8 3 14 10 24 14 21 5 -3 3 -16
-3 -29z m595 -8 c-7 -7 -12 -8 -12 -2 0 14 12 26 19 19 2 -3 -1 -11 -7 -17z
m-156 -12 c1 -9 -5 -12 -17 -9 -14 4 -15 8 -6 18 13 14 20 12 23 -9z m1814
-37 c0 -11 -4 -17 -10 -14 -5 3 -10 13 -10 21 0 8 5 14 10 14 6 0 10 -9 10
-21z m-67 4 c-16 -6 -17 -30 -1 -35 7 -3 6 -7 -5 -11 -13 -5 -17 -1 -17 17 0
25 8 36 24 35 6 0 5 -3 -1 -6z m65 -45 c-2 -6 -10 -14 -16 -16 -7 -2 -10 2 -6
12 7 18 28 22 22 4z m-2480 -33 c-3 -3 -9 2 -12 12 -6 14 -5 15 5 6 7 -7 10
-15 7 -18z m236 0 c3 -8 1 -15 -4 -15 -6 0 -10 7 -10 15 0 8 2 15 4 15 2 0 6
-7 10 -15z m411 -7 c9 -9 -14 -58 -27 -58 -7 0 -19 -9 -26 -20 -7 -11 -19 -20
-27 -20 -8 0 -15 -9 -15 -20 0 -12 -7 -20 -16 -20 -14 0 -14 3 -4 15 10 12 10
15 -1 16 -10 0 -11 2 -2 6 9 3 10 10 3 23 -7 13 -6 20 3 23 9 4 8 8 -3 16 -12
8 -9 10 11 7 13 -1 31 -6 39 -11 10 -6 12 -4 7 8 -7 18 8 24 18 7 7 -12 25 -4
25 11 0 5 -7 9 -15 9 -8 0 -15 4 -15 8 0 9 36 9 45 0z m-408 -90 c-2 -13 -4
-5 -4 17 -1 22 1 32 4 23 2 -10 2 -28 0 -40z m2586 -18 c-17 -29 -33 -39 -33
-20 0 5 8 14 18 19 9 6 13 11 9 11 -12 0 2 20 14 20 6 0 2 -13 -8 -30z m-188
0 c3 -6 -1 -7 -9 -4 -18 7 -21 14 -7 14 6 0 13 -4 16 -10z m592 -29 c8 -1 10
-19 7 -58 l-5 -58 18 31 c31 53 52 78 59 71 4 -4 2 -18 -4 -32 -7 -14 -12 -36
-12 -49 0 -30 -34 -108 -43 -99 -4 3 -7 16 -8 27 0 17 -2 16 -11 -7 -12 -33
-3 -93 16 -104 7 -5 16 -25 19 -46 5 -35 5 -37 -22 -37 -16 0 -33 6 -38 13
-10 12 -26 121 -25 168 1 17 -11 37 -34 60 -29 28 -34 39 -34 80 l0 48 53 -3
c28 -2 57 -4 64 -5z m-3052 -10 c3 -5 1 -12 -5 -16 -5 -3 -10 1 -10 9 0 18 6
21 15 7z m435 5 c0 -3 -4 -8 -10 -11 -5 -3 -10 -1 -10 4 0 6 5 11 10 11 6 0
10 -2 10 -4z m-361 -38 c13 -36 8 -46 -14 -28 -16 13 -21 60 -6 60 5 0 14 -14
20 -32z m289 20 c17 -17 15 -39 -3 -31 -9 3 -13 8 -11 11 3 3 1 11 -5 19 -14
16 3 17 19 1z m-28 -22 c0 -2 -7 -9 -15 -16 -13 -11 -14 -10 -9 4 5 14 24 23
24 12z m66 -25 c-3 -5 8 -14 24 -20 20 -7 30 -17 30 -30 0 -12 6 -21 13 -22 6
0 2 -5 -10 -11 -13 -6 -23 -15 -23 -20 0 -4 -7 -8 -16 -8 -12 0 -14 3 -6 13 6
7 7 18 2 26 -4 8 -6 20 -3 28 4 9 -3 16 -16 20 -23 6 -28 19 -8 26 18 8 19 8
13 -2z m1785 -4 c-1 -12 -15 -9 -19 4 -3 6 1 10 8 8 6 -3 11 -8 11 -12z m-37
-12 c-4 -8 -11 -15 -16 -15 -6 0 -5 6 2 15 7 8 14 15 16 15 2 0 1 -7 -2 -15z
m441 5 c-3 -5 -11 -10 -16 -10 -6 0 -7 5 -4 10 3 6 11 10 16 10 6 0 7 -4 4
-10z m-395 -70 c-8 -6 -28 -9 -45 -9 l-30 1 33 8 c18 4 36 10 39 14 4 3 9 4
12 0 3 -3 -1 -9 -9 -14z m-1731 -53 c0 -21 -1 -21 -9 -2 -12 28 -12 37 0 30 6
-3 10 -16 9 -28z m-29 -22 c0 -14 -5 -25 -11 -25 -5 0 -7 5 -4 11 4 6 -2 13
-14 16 -25 6 -18 23 10 23 14 0 19 -7 19 -25z m2140 -66 c0 -5 -8 -9 -17 -7
-12 2 -18 -3 -17 -14 1 -10 -2 -18 -7 -18 -14 0 -10 22 7 41 16 18 34 17 34
-2z m68 2 c28 -24 30 -46 2 -29 -11 7 -20 18 -20 25 0 6 -6 14 -12 16 -7 3 -8
6 -3 6 6 0 20 -8 33 -18z m-293 -11 c3 -5 2 -10 -4 -10 -5 0 -13 5 -16 10 -3
6 -2 10 4 10 5 0 13 -4 16 -10z m265 -50 c0 -5 -2 -10 -4 -10 -2 0 -12 -3 -22
-7 -16 -6 -17 -5 -4 10 17 19 30 22 30 7z m420 -25 c7 -9 10 -18 7 -22 -8 -7
-37 15 -37 28 0 14 16 11 30 -6z"/>
<path d="M808 563 c6 -2 18 -2 25 0 6 3 1 5 -13 5 -14 0 -19 -2 -12 -5z"/>
<path d="M785 1080 c3 -5 8 -10 11 -10 2 0 4 5 4 10 0 6 -5 10 -11 10 -5 0 -7
-4 -4 -10z"/>
<path d="M776 1063 c-10 -10 -7 -25 4 -18 17 10 11 -10 -8 -31 -10 -10 -21
-27 -25 -36 -8 -23 -19 -23 -35 2 -11 18 -10 20 14 20 22 0 24 3 19 23 -5 17
-4 18 4 7 5 -8 13 -11 17 -8 3 4 -1 14 -10 23 -14 14 -16 14 -22 -9 -3 -14
-11 -23 -18 -20 -7 3 -18 -2 -25 -10 -10 -11 -8 -18 11 -36 31 -29 64 -35 83
-17 19 20 19 27 0 27 -17 0 -14 5 28 52 10 11 17 22 14 24 -8 8 -45 13 -51 7z"/>
<path d="M811 1011 c-9 -15 -7 -20 10 -24 12 -3 31 -2 42 3 20 8 19 9 -8 10
-29 1 -29 1 -11 15 19 15 19 15 -2 15 -12 0 -26 -9 -31 -19z"/>
<path d="M810 930 c0 -5 5 -10 10 -10 6 0 10 5 10 10 0 6 -4 10 -10 10 -5 0
-10 -4 -10 -10z"/>
<path d="M750 911 c0 -5 -14 -12 -30 -16 -17 -4 -28 -11 -24 -16 3 -5 -4 -9
-15 -9 -12 0 -21 -4 -21 -10 0 -5 5 -10 10 -10 6 0 9 -5 8 -11 -2 -6 3 -14 10
-16 6 -3 12 1 12 7 0 12 39 49 53 50 10 0 37 26 37 34 0 3 -9 6 -20 6 -11 0
-20 -4 -20 -9z"/>
<path d="M730 770 c8 -5 24 -9 35 -9 l20 0 -20 9 c-11 5 -27 9 -35 9 -13 1
-13 0 0 -9z"/>
<path d="M610 761 c0 -6 5 -13 10 -16 6 -3 10 1 10 9 0 9 -4 16 -10 16 -5 0
-10 -4 -10 -9z"/>
<path d="M838 733 c7 -3 16 -2 19 1 4 3 -2 6 -13 5 -11 0 -14 -3 -6 -6z"/>
<path d="M707 719 c7 -7 15 -10 18 -7 3 3 -2 9 -12 12 -14 6 -15 5 -6 -5z"/>
<path d="M640 670 c-9 -6 -10 -10 -3 -10 6 0 15 5 18 10 8 12 4 12 -15 0z"/>
<path d="M600 491 c0 -6 5 -13 10 -16 6 -3 10 1 10 9 0 9 -4 16 -10 16 -5 0
-10 -4 -10 -9z"/>
<path d="M720 490 c0 -5 5 -10 10 -10 6 0 10 5 10 10 0 6 -4 10 -10 10 -5 0
-10 -4 -10 -10z"/>
</g>
</svg>
